<svg id="Layer_1" data-name="Layer 1" xmlns="http://www.w3.org/2000/svg" width="40" height="40" viewBox="0 0 40 40">
  <rect width="40" height="40" style="fill: #013498"/>
  <g>
    <path d="M18.47,0h3.11L23.2.25A19.49,19.49,0,0,1,34.34,6.08a19.48,19.48,0,0,1,5.38,17.19,19,19,0,0,1-5.83,11.09A19.47,19.47,0,0,1,17,39.75a19.08,19.08,0,0,1-11.92-6.5A19.44,19.44,0,0,1,.34,16.39a19.34,19.34,0,0,1,7-11.87A19.54,19.54,0,0,1,17.07.22ZM35.1,13.12v.05h0l0,0a5.64,5.64,0,0,0-.23-.83c-.12-.27,0-.41.18-.56s.47-.35.78-.59H34.5l-.4-1.22c-.13.39-.22.7-.35,1a.43.43,0,0,1-.3.22c-.33,0-.65,0-1.08,0,.36.27.64.45.88.67a.46.46,0,0,1,.11.36c-.07.31-.18.62-.27.92a2.06,2.06,0,0,0,.69-.42c.23-.23.41-.19.65,0A5.87,5.87,0,0,0,35.1,13.12ZM19,38c.23-.16.47-.3.68-.47a.35.35,0,0,1,.55,0c.21.19.46.34.69.51a9.59,9.59,0,0,0-.22-1,.5.5,0,0,1,.13-.4c.23-.22.51-.4.84-.66H20.62a.28.28,0,0,1-.34-.25c-.08-.31-.2-.61-.32-1-.12.36-.22.64-.3.93a.34.34,0,0,1-.39.3c-.31,0-.63,0-1,0l1.06.81c-.11.38-.22.75-.34,1.13v.08ZM8.45,22.65c1,0,2,0,3,0,.25,0,.34.06.41.32a10.91,10.91,0,0,0,2.67,4.88,8.8,8.8,0,0,0,5.71,2.87,10.7,10.7,0,0,0,7.67-2.54c.07-.06.16-.15.16-.23,0-.73,0-1.46,0-2.19-.06,0-.09,0-.1,0l-.14.12A10.48,10.48,0,0,1,24.86,28a8.22,8.22,0,0,1-5.06.83,7.58,7.58,0,0,1-4.58-2.73,8.8,8.8,0,0,1-1.77-3.42H24.07c.13,0,.35,0,.39-.12.26-.55.49-1.11.75-1.73H13.1V19h4.31c2.73,0,5.47,0,8.2,0,.13,0,.34-.05.38-.13.26-.54.48-1.1.74-1.71H13.44a9.09,9.09,0,0,1,2.09-3.77A7.36,7.36,0,0,1,21,10.94a9,9,0,0,1,5.13,1.66c.66.45,1.27,1,1.92,1.5.19-.45.38-.93.6-1.4a.36.36,0,0,0-.11-.48A12.43,12.43,0,0,0,25.08,10a8.94,8.94,0,0,0-9.49,1,10.56,10.56,0,0,0-3.79,5.9c-.06.26-.16.32-.4.31-.48,0-1,0-1.44,0-.74,0-.74,0-1,.67l-.49,1.18h3V20.8c-.65,0-1.28,0-1.91,0a.44.44,0,0,0-.33.14C8.93,21.48,8.71,22,8.45,22.65ZM6.14,28.82l1.06.76c-.13-.41-.21-.71-.33-1A.3.3,0,0,1,7,28.15c.26-.18.5-.39.83-.64-.43,0-.74,0-1,0a.52.52,0,0,1-.33-.25c-.13-.29-.21-.6-.33-1-.13.37-.21.68-.34,1a.52.52,0,0,1-.33.25c-.31,0-.63,0-1,0l1.06.81-.4,1.26Zm23-21.42c-.12-.39-.23-.7-.3-1A.46.46,0,0,1,29,6c.25-.22.52-.41.79-.61a4.11,4.11,0,0,0-1-.07.31.31,0,0,1-.37-.28c-.08-.29-.18-.57-.3-1-.13.39-.23.67-.31,1s-.17.3-.4.28h-.89a2.4,2.4,0,0,0,.63.57.41.41,0,0,1,.21.61,6.06,6.06,0,0,0-.27.82h.09c.31-.22.62-.61.93-.6S28.75,7.12,29.16,7.4Zm6.21,14.31,1.07-.78,1.05.77c-.13-.41-.21-.71-.32-1a.32.32,0,0,1,.13-.44c.27-.17.51-.38.76-.57a2.29,2.29,0,0,0-.81-.07c-.35.05-.5-.11-.56-.43s-.16-.49-.26-.81a10.1,10.1,0,0,1-.33,1,.52.52,0,0,1-.33.25c-.32,0-.64,0-1,0a4.35,4.35,0,0,0,.74.64.3.3,0,0,1,.14.43C35.58,21,35.5,21.3,35.37,21.71Zm-8.7,11.64,0,.08c.25.19.49.38.75.56a.31.31,0,0,1,.14.44c-.12.29-.19.6-.31,1l1.05-.77,1.05.77c-.13-.42-.24-.72-.31-1a.47.47,0,0,1,.11-.36c.24-.22.51-.41.86-.68-.42,0-.73,0-1,0s-.34-.08-.4-.3-.17-.56-.3-.94c-.12.38-.22.66-.3,1s-.16.31-.39.29S27,33.35,26.67,33.35Zm5.57-5.77,0,.08a7,7,0,0,0,.7.52c.25.15.26.31.16.56a7.24,7.24,0,0,0-.29.92l1-.77,1.06.77-.4-1.26,1-.82a9.18,9.18,0,0,0-.93,0,.39.39,0,0,1-.5-.35c-.06-.28-.17-.54-.28-.9a8.33,8.33,0,0,0-.26.84c-.07.3-.21.45-.55.41A6.77,6.77,0,0,0,32.24,27.58ZM3.58,18.29c-.13.4-.23.69-.32,1a.28.28,0,0,1-.34.25c-.32,0-.63,0-.95,0a7.78,7.78,0,0,0,.76.69.4.4,0,0,1,.11.36c-.06.32-.18.63-.3,1,.29-.22.51-.35.69-.52s.45-.26.7,0,.42.3.71.52c-.12-.39-.19-.68-.3-1a.34.34,0,0,1,.15-.5c.25-.16.49-.37.73-.55a2.23,2.23,0,0,0-.84-.07c-.3,0-.47,0-.52-.37A6.07,6.07,0,0,0,3.58,18.29Zm.66-7.21.58.44c.6.46.52.26.3.93l-.21.7L6,12.39l.93.67L7,13l-.34-1.12,1.06-.81H7.1c-.73,0-.73,0-1-.69,0-.16-.1-.31-.18-.53-.12.35-.23.65-.31,1s-.14.29-.36.27S4.66,11.08,4.24,11.08ZM13,7.38l-.4-1.26,1.07-.81a8.55,8.55,0,0,0-.88,0c-.35,0-.53-.06-.59-.43a6.1,6.1,0,0,0-.26-.8c-.12.36-.24.66-.32,1s-.14.29-.36.27-.64,0-1,0l1.06.8-.39,1.27L12,6.62Zm7.43-4.27-.41-1.24c-.12.36-.22.63-.29.91s-.17.36-.44.33-.59,0-1,0l.37.28c.7.52.7.52.42,1.35,0,.11-.07.22-.15.44l1.08-.77,1.05.76c-.13-.41-.21-.72-.32-1a.29.29,0,0,1,.12-.41c.27-.18.52-.38.84-.64ZM10,33.31l1.06.81-.4,1.27c.35-.25.62-.44.87-.64a.26.26,0,0,1,.39,0c.25.2.52.39.87.64l-.41-1.27,1.06-.81a7.42,7.42,0,0,0-1,0c-.3,0-.42-.1-.49-.37s-.16-.53-.27-.87c-.12.37-.25.67-.32,1s-.16.27-.37.26S10.36,33.31,10,33.31Z" style="fill: #013498"/>
    <path d="M8.45,22.65c.26-.62.48-1.17.73-1.7a.44.44,0,0,1,.33-.14c.63,0,1.26,0,1.91,0V19.06h-3L9,17.88c.27-.67.27-.67,1-.67.48,0,1,0,1.44,0,.24,0,.34-.05.4-.31A10.56,10.56,0,0,1,15.59,11a8.94,8.94,0,0,1,9.49-1,12.43,12.43,0,0,1,3.44,2.24.36.36,0,0,1,.11.48c-.22.47-.41,1-.6,1.4-.65-.51-1.26-1-1.92-1.5A9,9,0,0,0,21,10.94a7.36,7.36,0,0,0-5.45,2.49,9.09,9.09,0,0,0-2.09,3.77H26.73c-.26.61-.48,1.17-.74,1.71,0,.08-.25.13-.38.13-2.73,0-5.47,0-8.2,0H13.1V20.8H25.21c-.26.62-.49,1.18-.75,1.73,0,.09-.26.12-.39.12H13.45a8.8,8.8,0,0,0,1.77,3.42A7.58,7.58,0,0,0,19.8,28.8,8.22,8.22,0,0,0,24.86,28a10.48,10.48,0,0,0,2.92-2.07l.14-.12s0,0,.1,0c0,.73,0,1.46,0,2.19,0,.08-.09.17-.16.23a10.7,10.7,0,0,1-7.67,2.54,8.8,8.8,0,0,1-5.71-2.87A10.91,10.91,0,0,1,11.81,23c-.07-.26-.16-.33-.41-.32C10.45,22.66,9.49,22.65,8.45,22.65Z" style="fill: #fcca01"/>
    <path d="M6.14,28.82l-1.06.76.4-1.26-1.06-.81c.42,0,.74,0,1,0a.52.52,0,0,0,.33-.25c.13-.28.21-.59.34-1,.12.36.2.67.33,1a.52.52,0,0,0,.33.25c.31,0,.62,0,1,0-.33.25-.57.46-.83.64a.3.3,0,0,0-.15.43c.12.29.2.59.33,1Z" style="fill: #f9c903"/>
    <path d="M29.16,7.4c-.41-.28-.73-.66-1.05-.66s-.62.38-.93.6h-.09a6.06,6.06,0,0,1,.27-.82.41.41,0,0,0-.21-.61,2.4,2.4,0,0,1-.63-.57h.89c.23,0,.35,0,.4-.28s.18-.57.31-1c.12.39.22.67.3,1a.31.31,0,0,0,.37.28,4.11,4.11,0,0,1,1,.07c-.27.2-.54.39-.79.61a.46.46,0,0,0-.11.36C28.93,6.7,29,7,29.16,7.4Z" style="fill: #f9c903"/>
    <path d="M35.37,21.71c.13-.41.21-.72.33-1a.3.3,0,0,0-.14-.43,4.35,4.35,0,0,1-.74-.64c.31,0,.63,0,1,0a.52.52,0,0,0,.33-.25,10.1,10.1,0,0,0,.33-1c.1.32.2.56.26.81s.21.48.56.43a2.29,2.29,0,0,1,.81.07c-.25.19-.49.4-.76.57a.32.32,0,0,0-.13.44c.11.29.19.59.32,1l-1.05-.77Z" style="fill: #fac903"/>
    <path d="M26.67,33.35c.3,0,.6,0,.9,0s.33-.08.39-.29.18-.57.3-1c.13.38.23.66.3.94s.16.32.4.3.6,0,1,0c-.35.27-.62.46-.86.68a.47.47,0,0,0-.11.36c.07.32.18.62.31,1l-1.05-.77-1.05.77c.12-.4.19-.71.31-1a.31.31,0,0,0-.14-.44c-.26-.18-.5-.37-.75-.56Z" style="fill: #f9c903"/>
    <path d="M32.24,27.58a6.77,6.77,0,0,1,.78,0c.34,0,.48-.11.55-.41a8.33,8.33,0,0,1,.26-.84c.11.36.22.62.28.9a.39.39,0,0,0,.5.35,9.18,9.18,0,0,1,.93,0l-1,.82.4,1.26-1.06-.77-1,.77a7.24,7.24,0,0,1,.29-.92c.1-.25.09-.41-.16-.56a7,7,0,0,1-.7-.52Z" style="fill: #f9c903"/>
    <path d="M3.58,18.29a6.07,6.07,0,0,1,.28.87c.05.33.22.39.52.37a2.23,2.23,0,0,1,.84.07c-.24.18-.48.39-.73.55a.34.34,0,0,0-.15.5c.11.28.18.57.3,1-.29-.22-.52-.35-.71-.52s-.45-.22-.7,0-.4.3-.69.52c.12-.41.24-.72.3-1a.4.4,0,0,0-.11-.36A7.78,7.78,0,0,1,2,19.52c.32,0,.63,0,1,0a.28.28,0,0,0,.34-.25C3.35,19,3.45,18.69,3.58,18.29Z" style="fill: #f4c606"/>
    <path d="M4.24,11.08c.42,0,.74,0,1,0s.31-.07.36-.27.19-.6.31-1c.08.22.13.37.18.53.23.69.23.69,1,.69h.59l-1.06.81L7,13l-.07.05L6,12.39l-1.06.76.21-.7c.22-.67.3-.47-.3-.93Z" style="fill: #fac903"/>
    <path d="M19,38l.34-1.13-1.06-.81c.4,0,.72,0,1,0a.34.34,0,0,0,.39-.3c.08-.29.18-.57.3-.93.12.36.24.66.32,1a.28.28,0,0,0,.34.25h1.06c-.33.26-.61.44-.84.66a.5.5,0,0,0-.13.4,9.59,9.59,0,0,1,.22,1c-.23-.17-.48-.32-.69-.51a.35.35,0,0,0-.55,0c-.21.17-.45.31-.68.47Z" style="fill: #f9c903"/>
    <path d="M13,7.38,12,6.62l-1.05.76.39-1.27-1.06-.8c.4,0,.72,0,1,0s.31-.06.36-.27.2-.6.32-1a6.1,6.1,0,0,1,.26.8c.06.37.24.47.59.43a8.55,8.55,0,0,1,.88,0l-1.07.81Z" style="fill: #fac903"/>
    <path d="M35.1,13.12a5.87,5.87,0,0,1-.67-.43c-.24-.19-.42-.23-.65,0a2.06,2.06,0,0,1-.69.42c.09-.3.2-.61.27-.92a.46.46,0,0,0-.11-.36c-.24-.22-.52-.4-.88-.67.43,0,.75,0,1.08,0a.43.43,0,0,0,.3-.22c.13-.3.22-.61.35-1l.4,1.22h1.32c-.31.24-.53.43-.78.59s-.3.29-.18.56a5.64,5.64,0,0,1,.23.83Z" style="fill: #f8c903"/>
    <path d="M20.46,3.11h1.29c-.32.26-.57.46-.84.64a.29.29,0,0,0-.12.41c.11.29.19.6.32,1l-1.05-.76L19,5.18c.08-.22.11-.33.15-.44.28-.83.28-.83-.42-1.35l-.37-.28c.39,0,.68,0,1,0s.38-.09.44-.33.17-.55.29-.91Z" style="fill: #f9c903"/>
    <path d="M10,33.31c.41,0,.72,0,1,0s.32,0,.37-.26.2-.6.32-1c.11.34.21.6.27.87s.19.4.49.37a7.42,7.42,0,0,1,1,0l-1.06.81.41,1.27c-.35-.25-.62-.44-.87-.64a.26.26,0,0,0-.39,0c-.25.2-.52.39-.87.64l.4-1.27Z" style="fill: #fac903"/>
    <path d="M35.09,13.13l0,0h0v-.05Z" style="fill: #f8c903"/>
    <path d="M19,38l-.06,0V38Z" style="fill: #f9c903"/>
  </g>
</svg>
