<svg width="16" height="16" viewBox="0 0 16 16" fill="none" xmlns="http://www.w3.org/2000/svg">
<path fill-rule="evenodd" clip-rule="evenodd" d="M8.6667 2.66447C8.6655 2.29629 8.36605 1.99878 7.99786 1.99999C7.62967 2.00119 7.33217 2.30064 7.33338 2.66883L7.34861 7.33331H2.66661C2.29842 7.33331 1.99995 7.63178 1.99995 7.99997C1.99995 8.36816 2.29842 8.66664 2.66661 8.66664H7.35296L7.36821 13.3355C7.36941 13.7037 7.66886 14.0012 8.03705 14C8.40523 13.9988 8.70273 13.6993 8.70153 13.3311L8.6863 8.66664H13.3333C13.7015 8.66664 13.9999 8.36816 13.9999 7.99997C13.9999 7.63178 13.7015 7.33331 13.3333 7.33331H8.68195L8.6667 2.66447Z" fill="#2D2F30"/>
</svg>
