<svg width="16" height="16" viewBox="0 0 16 16" fill="none" xmlns="http://www.w3.org/2000/svg">
<path fill-rule="evenodd" clip-rule="evenodd" d="M7.88518 2.4669C7.52259 2.40296 7.17682 2.64507 7.11288 3.00767L9.73903 3.47073C9.80297 3.10813 9.56086 2.76236 9.19826 2.69843L7.88518 2.4669ZM8.11672 1.15382C7.02893 0.962013 5.99161 1.68835 5.7998 2.77614L3.17365 2.31308C2.81105 2.24914 2.46528 2.49125 2.40135 2.85385C2.33741 3.21645 2.57952 3.56222 2.94212 3.62615L8.84316 4.66667H3.33333C3.1469 4.66667 2.96898 4.74473 2.84275 4.88193C2.71651 5.01912 2.65349 5.20291 2.66897 5.3887L3.33564 13.3887C3.36443 13.7342 3.65328 14 4 14H12C12.3467 14 12.6356 13.7342 12.6644 13.3887L13.3253 5.457L13.4467 5.4784C13.8093 5.54234 14.1551 5.30022 14.219 4.93763C14.283 4.57503 14.0409 4.22926 13.6783 4.16532L11.0521 3.70226C11.2439 2.61447 10.5176 1.57716 9.42979 1.38535L8.11672 1.15382ZM4.61342 12.6667L4.05787 6H11.9421L11.3866 12.6667H4.61342ZM6.66667 7.33333C7.03486 7.33333 7.33333 7.63181 7.33333 8V10.6667C7.33333 11.0349 7.03486 11.3333 6.66667 11.3333C6.29848 11.3333 6 11.0349 6 10.6667V8C6 7.63181 6.29848 7.33333 6.66667 7.33333ZM8.66667 8C8.66667 7.63181 8.96514 7.33333 9.33333 7.33333C9.70152 7.33333 10 7.63181 10 8V10.6667C10 11.0349 9.70152 11.3333 9.33333 11.3333C8.96514 11.3333 8.66667 11.0349 8.66667 10.6667V8Z" fill="black"/>
</svg>
