<svg width="16" height="16" viewBox="0 0 16 16" fill="none" xmlns="http://www.w3.org/2000/svg">
<path fill-rule="evenodd" clip-rule="evenodd" d="M12.7475 2.58579L13.5286 3.36683C14.3096 4.14788 14.3096 5.41421 13.5286 6.19526L9.13807 10.5858C9.045 10.6789 8.92647 10.7423 8.79741 10.7681L5.46408 11.4348C4.9976 11.5281 4.58632 11.1168 4.67961 10.6503L5.34628 7.31697C5.37209 7.18791 5.43553 7.06938 5.5286 6.97631L9.91912 2.58579C10.7002 1.80474 11.9665 1.80474 12.7475 2.58579ZM12.6376 4.36779L12.5858 4.30964L11.8047 3.5286C11.5444 3.26825 11.1223 3.26825 10.8619 3.5286L6.9678 7.42223L8.6917 9.14613L8.33815 9.49969L12.5858 5.25245C12.8275 5.0107 12.8448 4.62947 12.6376 4.36779ZM7.74876 9.61741L6.49637 8.36502L6.18336 9.93008L7.74876 9.61741ZM8.311 2.78105H3.33333C2.59695 2.78105 2 3.378 2 4.11438V12.781C2 13.5174 2.59695 14.1144 3.33333 14.1144H12C12.7364 14.1144 13.3333 13.5174 13.3333 12.781V7.799L12 9.13452V12.781H3.33333V4.11438H6.97966L8.311 2.78105Z" fill="black"/>
</svg>
