<svg width="24" height="24" viewBox="0 0 24 24" fill="none" xmlns="http://www.w3.org/2000/svg">
<path fill-rule="evenodd" clip-rule="evenodd" d="M13.0001 3.99671C12.9983 3.44443 12.5491 2.99818 11.9968 2.99998C11.4445 3.00179 10.9983 3.45096 11.0001 4.00324L11.0229 11H3.99993C3.44764 11 2.99993 11.4477 2.99993 12C2.99993 12.5522 3.44764 13 3.99993 13H11.0295L11.0523 20.0032C11.0541 20.5555 11.5033 21.0018 12.0556 21C12.6079 20.9982 13.0541 20.549 13.0523 19.9967L13.0295 13H19.9999C20.5522 13 20.9999 12.5522 20.9999 12C20.9999 11.4477 20.5522 11 19.9999 11H13.0229L13.0001 3.99671Z" fill="#2D2F30"/>
</svg>
