<svg width="24" height="24" viewBox="0 0 24 24" fill="none" xmlns="http://www.w3.org/2000/svg">
<path fill-rule="evenodd" clip-rule="evenodd" d="M11.282 3.1915C10.6694 3.08723 10.0852 3.48207 9.9772 4.07341L14.414 4.82858C14.522 4.23725 14.1129 3.67335 13.5004 3.56909L11.282 3.1915ZM11.6731 1.0501C9.83537 0.737294 8.08287 1.92182 7.75882 3.69582L3.32207 2.94065C2.70948 2.83638 2.12532 3.23122 2.0173 3.82255C1.90928 4.41388 2.31832 4.97778 2.93091 5.08205L12.9004 6.77894H3.59185C3.27688 6.77894 2.97629 6.90626 2.76302 7.13C2.54975 7.35374 2.44328 7.65346 2.46944 7.95645L3.59574 21.0031C3.64438 21.5666 4.13237 22 4.71815 22H18.2337C18.8195 22 19.3075 21.5666 19.3562 21.0031L20.4728 8.06783L20.6779 8.10274C21.2905 8.20701 21.8747 7.81217 21.9827 7.22083C22.0907 6.6295 21.6817 6.06561 21.0691 5.96134L16.6323 5.20617C16.9564 3.43217 15.7293 1.74049 13.8915 1.42768L11.6731 1.0501ZM5.75449 19.8256L4.81591 8.95338H18.136L17.1974 19.8256H5.75449ZM9.22335 11.1278C9.84539 11.1278 10.3496 11.6146 10.3496 12.215V16.5639C10.3496 17.1644 9.84539 17.6511 9.22335 17.6511C8.60131 17.6511 8.09705 17.1644 8.09705 16.5639V12.215C8.09705 11.6146 8.60131 11.1278 9.22335 11.1278ZM12.6022 12.215C12.6022 11.6146 13.1065 11.1278 13.7285 11.1278C14.3506 11.1278 14.8548 11.6146 14.8548 12.215V16.5639C14.8548 17.1644 14.3506 17.6511 13.7285 17.6511C13.1065 17.6511 12.6022 17.1644 12.6022 16.5639V12.215Z" fill="black"/>
</svg>
