<svg width="24" height="24" viewBox="0 0 24 24" fill="none" xmlns="http://www.w3.org/2000/svg">
<path fill-rule="evenodd" clip-rule="evenodd" d="M11.8278 3.70034C11.2839 3.60444 10.7652 3.96761 10.6693 4.5115L14.6086 5.20609C14.7045 4.6622 14.3413 4.14354 13.7974 4.04764L11.8278 3.70034ZM12.1751 1.73072C10.5434 1.44302 8.98741 2.53252 8.6997 4.1642L4.76047 3.46961C4.21658 3.37371 3.69792 3.73688 3.60202 4.28077C3.50611 4.82466 3.86928 5.34332 4.41318 5.43923L13.2647 7H5C4.72035 7 4.45347 7.11709 4.26412 7.32289C4.07476 7.52868 3.98023 7.80435 4.00346 8.08304L5.00346 20.083C5.04665 20.6013 5.47991 21 6 21H18C18.5201 21 18.9534 20.6013 18.9965 20.083L19.988 8.18549L20.1701 8.2176C20.714 8.3135 21.2327 7.95033 21.3286 7.40644C21.4245 6.86254 21.0613 6.34388 20.5174 6.24798L16.5782 5.55339C16.8659 3.92171 15.7764 2.36573 14.1447 2.07802L12.1751 1.73072ZM6.92013 19L6.0868 9H17.9132L17.0799 19H6.92013ZM10 11C10.5523 11 11 11.4477 11 12V16C11 16.5523 10.5523 17 10 17C9.44772 17 9 16.5523 9 16V12C9 11.4477 9.44772 11 10 11ZM13 12C13 11.4477 13.4477 11 14 11C14.5523 11 15 11.4477 15 12V16C15 16.5523 14.5523 17 14 17C13.4477 17 13 16.5523 13 16V12Z" fill="black"/>
</svg>
