<svg width="24" height="24" viewBox="0 0 24 24" fill="none" xmlns="http://www.w3.org/2000/svg">
<path fill-rule="evenodd" clip-rule="evenodd" d="M19.7435 2.96709L21.0329 4.25655C22.3224 5.54601 22.3224 7.63663 21.0329 8.92609L13.7845 16.1745C13.6308 16.3282 13.4351 16.4329 13.2221 16.4755L7.71895 17.5761C6.94882 17.7302 6.26983 17.0512 6.42385 16.281L7.52447 10.7779C7.56709 10.5649 7.67182 10.3692 7.82547 10.2155L15.0739 2.96709C16.3634 1.67764 18.454 1.67764 19.7435 2.96709ZM19.5619 5.90906L19.4764 5.81306L18.1869 4.5236C17.7571 4.09379 17.0602 4.09379 16.6304 4.5236L10.2015 10.9517L13.0475 13.7978L12.4638 14.3815L19.4764 7.36957C19.8755 6.97046 19.904 6.34107 19.5619 5.90906ZM11.4908 14.5758L9.42319 12.5082L8.90643 15.092L11.4908 14.5758ZM12.419 3.28946H4.20124C2.98553 3.28946 2 4.27499 2 5.4907V19.7988C2 21.0145 2.98553 22 4.20124 22H18.5093C19.725 22 20.7105 21.0145 20.7105 19.7988V11.5737L18.5093 13.7786V19.7988H4.20124V5.4907H10.2211L12.419 3.28946Z" fill="black"/>
</svg>
