<svg width="24" height="24" viewBox="0 0 24 24" fill="none" xmlns="http://www.w3.org/2000/svg">
<path fill-rule="evenodd" clip-rule="evenodd" d="M19.1213 3.87868L20.2929 5.05025C21.4645 6.22183 21.4645 8.12132 20.2929 9.29289L13.7071 15.8787C13.5675 16.0183 13.3897 16.1134 13.1961 16.1522L8.19612 17.1522C7.4964 17.2921 6.87948 16.6752 7.01942 15.9755L8.01942 10.9755C8.05814 10.7819 8.15329 10.6041 8.29289 10.4645L14.8787 3.87868C16.0503 2.70711 17.9497 2.70711 19.1213 3.87868ZM18.9564 6.55169L18.8787 6.46447L17.7071 5.29289C17.3166 4.90237 16.6834 4.90237 16.2929 5.29289L10.4517 11.1333L13.0375 13.7192L12.5072 14.2495L18.8787 7.87868C19.2413 7.51605 19.2672 6.9442 18.9564 6.55169ZM11.6231 14.4261L9.74456 12.5475L9.27504 14.8951L11.6231 14.4261ZM12.4665 4.17157H5C3.89543 4.17157 3 5.06701 3 6.17157V19.1716C3 20.2761 3.89543 21.1716 5 21.1716H18C19.1046 21.1716 20 20.2761 20 19.1716V11.6985L18 13.7018V19.1716H5V6.17157H10.4695L12.4665 4.17157Z" fill="black"/>
</svg>
