<svg width="24" height="24" viewBox="0 0 24 24" fill="none" xmlns="http://www.w3.org/2000/svg">
<path fill-rule="evenodd" clip-rule="evenodd" d="M12.5645 17.1761C12.2722 17.0248 11.9242 17.0271 11.6339 17.1822L8.0273 19.1084C7.2962 19.4988 6.43473 18.8815 6.56951 18.0637L7.23439 14.0294C7.28791 13.7046 7.17821 13.3743 6.94103 13.1461L3.99462 10.3113C3.39734 9.73667 3.71827 8.72659 4.5377 8.60206L8.57999 7.98774C8.90538 7.93829 9.18561 7.73188 9.32934 7.4358L11.1149 3.75759C11.4769 3.01197 12.5367 3.00506 12.9084 3.7459L14.7417 7.40051C14.8893 7.69469 15.1722 7.89742 15.4982 7.94263L19.5482 8.50418C20.3692 8.61802 20.7032 9.62383 20.1135 10.2062L17.2043 13.0792C16.9701 13.3105 16.8647 13.6422 16.9225 13.9662L17.6399 17.9915C17.7854 18.8074 16.932 19.436 16.1959 19.0551L12.5645 17.1761Z" fill="#07694D"/>
</svg>
