<svg width="24" height="24" viewBox="0 0 24 24" fill="none" xmlns="http://www.w3.org/2000/svg">
<path fill-rule="evenodd" clip-rule="evenodd" d="M10.2153 3.32088C10.9392 1.82963 13.0589 1.81581 13.8022 3.29749L15.6356 6.9521L19.6855 7.51365C21.3275 7.74132 21.9956 9.75295 20.8162 10.9177L17.907 13.7907L18.6244 17.816C18.9153 19.448 17.2086 20.705 15.7363 19.9432L12.105 18.0642L8.4984 19.9904C7.03621 20.7714 5.31326 19.5366 5.58282 17.901L6.2477 13.8668L3.30129 11.0319C2.10674 9.88264 2.7486 7.86247 4.38745 7.6134L8.42974 6.99909L10.2153 3.32088ZM12.0145 4.1943L10.2289 7.8725C9.94148 8.46468 9.38103 8.87748 8.73024 8.97638L4.68795 9.5907L7.63436 12.4255C8.10872 12.8819 8.32812 13.5425 8.22108 14.192L7.5562 18.2263L11.1628 16.3001C11.7434 15.99 12.4394 15.9854 13.0241 16.2879L16.6554 18.1669L15.938 14.1417C15.8225 13.4936 16.0333 12.8302 16.5016 12.3677L19.4108 9.4947L15.3609 8.93315C14.7089 8.84274 14.1431 8.43728 13.8479 7.84891L12.0145 4.1943Z" fill="#CCCCCC"/>
</svg>
