<svg width="24" height="24" viewBox="0 0 24 24" fill="none" xmlns="http://www.w3.org/2000/svg">
<path fill-rule="evenodd" clip-rule="evenodd" d="M12 2C6.48 2 2 6.48 2 12C2 17.52 6.48 22 12 22C17.52 22 22 17.52 22 12C22 6.48 17.52 2 12 2ZM12 20C7.59 20 4 16.41 4 12C4 7.59 7.59 4 12 4C16.41 4 20 7.59 20 12C20 16.41 16.41 20 12 20ZM12 5C11.4477 5 11 5.44772 11 6C11 6.02875 11.0012 6.05721 11.0036 6.08535C9.25579 6.41983 8.07692 7.713 8.07692 9.53083C8.07692 11.2601 9.06294 12.37 11.0769 12.8284L12.1469 13.0697C13.4126 13.3673 13.8881 13.8016 13.8881 14.5657C13.8881 15.4182 13.1189 16.0456 11.986 16.0456C11.021 16.0456 10.2308 15.6434 9.9021 14.7587C9.65035 14.244 9.36364 14.0509 8.93007 14.0509C8.38462 14.0509 8 14.4772 8 15.1206C8 15.3378 8.04196 15.563 8.11189 15.7721C8.45313 16.8413 9.45273 17.6884 11.0024 17.9303C11.0008 17.9533 11 17.9766 11 18C11 18.5523 11.4477 19 12 19C12.5523 19 13 18.5523 13 18C13 17.9685 12.9985 17.9374 12.9957 17.9066C14.8808 17.5548 16 16.2304 16 14.3003C16 12.5389 15.0769 11.5496 12.9371 11.059L11.8741 10.8097C10.6783 10.5362 10.1958 10.0938 10.1958 9.37802C10.1958 8.52547 10.8881 7.96247 11.9301 7.96247C12.7972 7.96247 13.4476 8.3244 13.7832 9.20107C14.021 9.69973 14.3147 9.91689 14.7902 9.91689C15.3287 9.91689 15.6923 9.52279 15.6923 8.9437C15.6923 8.73458 15.6643 8.56568 15.6154 8.40483C15.2587 7.19975 14.3024 6.38804 12.9942 6.10811C12.998 6.0726 13 6.03653 13 6C13 5.44772 12.5523 5 12 5Z" fill="black"/>
</svg>
