<svg width="24" height="24" viewBox="0 0 24 24" fill="none" xmlns="http://www.w3.org/2000/svg">
<path fill-rule="evenodd" clip-rule="evenodd" d="M9.14285 5C8.30895 5 7.57143 5.7116 7.57143 6.66667L7.57143 13.6667L14.2857 13.6667V13.6667C14.3477 13.6667 14.3979 13.7169 14.3979 13.7788L14.3985 15.5539C14.3985 15.6162 14.348 15.6667 14.2857 15.6667V15.6667C13.9832 15.6667 13.6843 15.7595 13.4267 15.938C13.1685 16.1169 12.962 16.375 12.8387 16.6838C12.7152 16.9928 12.6824 17.3349 12.7458 17.6652C12.8091 17.9954 12.9646 18.2939 13.1873 18.5248C13.4096 18.7553 13.6883 18.908 13.9861 18.9694C14.0895 18.9907 14.1943 19.0009 14.299 18.9999C14.7125 18.9962 15.1014 18.8176 15.3873 18.5216C15.4594 18.4464 15.5251 18.3634 15.5832 18.2732C15.7559 18.0051 15.8522 17.6876 15.857 17.3591L15.8571 17.3333L15.8571 6.66667C15.8571 6.0975 15.9462 5.52374 16.1485 5H9.14285ZM6.57234 15.6667H11.1045C11.0598 15.7565 11.0188 15.8483 10.9814 15.9419C10.7156 16.6074 10.6465 17.3377 10.7816 18.0419C10.8457 18.3761 10.9546 18.6985 11.1045 19L6.57143 19C5.73752 19 5 18.2884 5 17.3333C5 16.3783 5.73843 15.6667 6.57234 15.6667ZM6.57143 21L14.2811 21L14.3133 20.9999C15.3054 20.9923 16.1879 20.5747 16.8241 19.9128C16.9877 19.7431 17.1353 19.5568 17.2644 19.3565C17.4573 19.0571 17.6049 18.7325 17.7046 18.3935C17.7952 18.0862 17.8474 17.763 17.8559 17.4303C17.8567 17.398 17.8571 17.3657 17.8571 17.3333L17.8571 8.77463C18.2094 8.91988 18.5953 9 19 9C20.6569 9 22 7.65685 22 6C22 4.34315 20.6569 3 19 3H9.14285C7.13644 3 5.57143 4.67621 5.57143 6.66667L5.57143 13.8113C4.06841 14.2587 3 15.6887 3 17.3333C3 19.3238 4.56501 21 6.57143 21ZM19 5C18.4477 5 18 5.44772 18 6C18 6.55228 18.4477 7 19 7C19.5523 7 20 6.55228 20 6C20 5.44772 19.5523 5 19 5ZM14.5 7H9V9H14.5V7ZM9 10H13V12H9V10Z" fill="black"/>
</svg>
