<svg width="24" height="24" viewBox="0 0 24 24" fill="none" xmlns="http://www.w3.org/2000/svg">
<path fill-rule="evenodd" clip-rule="evenodd" d="M8 8C8 5.79 9.79 4 12 4C14.21 4 16 5.79 16 8C16 10.21 14.21 12 12 12C9.79 12 8 10.21 8 8ZM14 8C14 6.9 13.1 6 12 6C10.9 6 10 6.9 10 8C10 9.1 10.9 10 12 10C13.1 10 14 9.1 14 8ZM12 16C14.7 16 17.8 17.29 18 18H6C6.23 17.28 9.31 16 12 16ZM4 18C4 15.34 9.33 14 12 14C14.67 14 20 15.34 20 18V19C20 19.5523 19.5523 20 19 20H5C4.44772 20 4 19.5523 4 19V18Z" fill="black"/>
</svg>
