<svg width="24" height="24" viewBox="0 0 24 24" fill="none" xmlns="http://www.w3.org/2000/svg">
<path d="M20 12C20 16.4183 16.4183 20 12 20C7.58172 20 4 16.4183 4 12C4 7.58172 7.58172 4 12 4C16.4183 4 20 7.58172 20 12Z" fill="#07694D"/>
<path fill-rule="evenodd" clip-rule="evenodd" d="M16.6285 8.17966C17.0527 8.53322 17.1101 9.16378 16.7565 9.58806L11.7565 15.5881C11.5758 15.805 11.3118 15.9353 11.0297 15.947C10.7476 15.9587 10.4737 15.8506 10.2756 15.6494L7.30645 12.6329C6.91902 12.2393 6.92402 11.6062 7.31761 11.2188C7.71121 10.8313 8.34435 10.8363 8.73178 11.2299L10.9267 13.4598L15.2201 8.30769C15.5736 7.88342 16.2042 7.82609 16.6285 8.17966Z" fill="#FAFDFF"/>
</svg>
