<svg width="24" height="24" viewBox="0 0 24 24" fill="none" xmlns="http://www.w3.org/2000/svg">
<path fill-rule="evenodd" clip-rule="evenodd" d="M8.87442 3.6712C9.03514 2.70683 9.86953 2 10.8472 2H13.1529C14.1306 2 14.965 2.70683 15.1257 3.6712L15.2989 4.7099C15.7811 4.92843 16.2376 5.19327 16.6628 5.49863L17.6502 5.1287C18.5657 4.78571 19.5951 5.15489 20.0839 6.00158L21.2368 7.99842C21.7256 8.84511 21.5307 9.92112 20.7759 10.5425L19.9618 11.2127C19.9871 11.4719 20.0001 11.7346 20.0001 12C20.0001 12.2963 19.9839 12.5892 19.9524 12.8777L20.7758 13.5556C21.5306 14.177 21.7255 15.253 21.2367 16.0997L20.0838 18.0965C19.595 18.9432 18.5656 19.3124 17.6501 18.9694L16.5721 18.5655C16.1729 18.844 15.747 19.087 15.2988 19.2901L15.1257 20.3288C14.9649 21.2931 14.1306 22 13.1529 22H10.8471C9.86947 22 9.03509 21.2931 8.87436 20.3288L8.70124 19.2901C8.25307 19.087 7.82715 18.8439 7.428 18.5655L6.34994 18.9694C5.4344 19.3124 4.40508 18.9432 3.91624 18.0965L2.76337 16.0997C2.27453 15.253 2.46947 14.177 3.22428 13.5556L4.04776 12.8777C4.01623 12.5892 4.00008 12.2963 4.00008 12C4.00008 11.7346 4.01304 11.4719 4.0384 11.2127L3.22429 10.5425C2.46949 9.92112 2.27455 8.84511 2.76339 7.99842L3.91626 6.00158C4.4051 5.15489 5.43442 4.78571 6.34996 5.1287L7.33739 5.49863C7.76251 5.19327 8.21902 4.92843 8.7013 4.7099L8.87442 3.6712ZM13.1529 4L10.8472 4L10.5825 5.5881C10.5233 5.94329 10.2777 6.23923 9.93954 6.36289C9.28243 6.60316 8.67836 6.9555 8.1507 7.39736C7.87449 7.62865 7.49522 7.6935 7.15786 7.56711L5.64831 7.00158L4.49544 8.99842L5.7391 10.0222C6.01678 10.2508 6.15031 10.611 6.08879 10.9653C6.03055 11.3008 6.00008 11.6464 6.00008 12C6.00008 12.3793 6.03515 12.7495 6.10196 13.1078C6.16871 13.4658 6.0356 13.8317 5.75447 14.0632L4.49542 15.0997L5.64829 17.0965L7.23964 16.5003C7.57196 16.3758 7.94537 16.4368 8.22086 16.6605C8.73167 17.0753 9.31134 17.4074 9.93949 17.6371C10.2777 17.7608 10.5233 18.0567 10.5825 18.4119L10.8471 20H13.1529L13.4176 18.4119C13.4768 18.0567 13.7224 17.7608 14.0606 17.6371C14.6887 17.4074 15.2684 17.0753 15.7793 16.6605C16.0548 16.4368 16.4282 16.3759 16.7605 16.5004L18.3517 17.0965L19.5046 15.0997L18.2457 14.0632C17.9645 13.8318 17.8314 13.4659 17.8982 13.1079C17.965 12.7496 18.0001 12.3793 18.0001 12C18.0001 11.6464 17.9696 11.3008 17.9114 10.9653C17.8498 10.611 17.9834 10.2508 18.2611 10.0222L19.5047 8.99842L18.3518 7.00158L16.8423 7.56711C16.5049 7.6935 16.1257 7.62865 15.8495 7.39736C15.3218 6.9555 14.7177 6.60316 14.0606 6.36289C13.7224 6.23923 13.4768 5.94329 13.4176 5.5881L13.1529 4ZM12 10C10.8954 10 10 10.8954 10 12C10 13.1046 10.8954 14 12 14C13.1046 14 14 13.1046 14 12C14 10.8954 13.1046 10 12 10ZM8.00002 12C8.00002 9.79086 9.79088 8 12 8C14.2092 8 16 9.79086 16 12C16 14.2091 14.2092 16 12 16C9.79088 16 8.00002 14.2091 8.00002 12Z" fill="#2D2F30"/>
</svg>
