<svg width="24" height="24" viewBox="0 0 24 24" fill="none" xmlns="http://www.w3.org/2000/svg">
<path fill-rule="evenodd" clip-rule="evenodd" d="M17.3416 4.96709L18.631 6.25655C19.9205 7.54601 19.9205 9.63663 18.631 10.9261L11.3826 18.1745C11.2289 18.3282 11.0333 18.4329 10.8202 18.4755L5.31708 19.5761C4.54695 19.7302 3.86796 19.0512 4.02199 18.281L5.12261 12.7779C5.16522 12.5649 5.26995 12.3692 5.4236 12.2155L12.672 4.96709C13.9615 3.67764 16.0521 3.67764 17.3416 4.96709ZM17.1601 7.90906L17.0745 7.81306L15.7851 6.5236C15.3553 6.09379 14.6584 6.09379 14.2286 6.5236L7.79962 12.9517L10.6457 15.7978L10.062 16.3815L17.0745 9.36957C17.4736 8.97046 17.5022 8.34107 17.1601 7.90906ZM9.08894 16.5758L7.02132 14.5082L6.50456 17.092L9.08894 16.5758Z" fill="black"/>
</svg>
